<svg data-v-fde0c5aa="" xmlns="http://www.w3.org/2000/svg" viewBox="0 0 300 300" class="iconLeftSlogan"><!----><defs data-v-fde0c5aa=""><!----></defs><rect data-v-fde0c5aa="" fill="#0E0000" x="0" y="0" width="300px" height="300px" class="logo-background-square"></rect><defs data-v-fde0c5aa=""><!----></defs><g data-v-fde0c5aa="" id="57542581-6683-440e-94c6-0660b568bc5a" fill="#ffffff" transform="matrix(3.8716157767916064,0,0,3.8716157767916064,128.40377324847475,107.71072475386144)"><path d="M10.89 4.10L10.89 4.10L10.89 4.10Q11.37 4.22 11.49 4.29L11.49 4.29L11.49 4.29Q11.61 4.35 11.61 4.41L11.61 4.41L11.61 4.41Q11.61 4.46 11.48 4.56L11.48 4.56L11.48 4.56Q11.36 4.66 11.17 4.78L11.17 4.78L11.17 4.78Q10.98 4.91 10.75 5.05L10.75 5.05L10.75 5.05Q10.52 5.19 10.31 5.31L10.31 5.31L10.31 5.31Q9.80 5.61 9.70 5.64L9.70 5.64L9.70 5.64Q9.72 5.62 9.78 5.58L9.78 5.58L9.78 5.58Q9.83 5.54 9.89 5.50L9.89 5.50L9.89 5.50Q10.04 5.38 10.04 5.33L10.04 5.33L10.04 5.33Q10.04 5.28 9.73 5.16L9.73 5.16L9.73 5.16Q9.11 4.92 8.01 4.92L8.01 4.92L8.01 4.92Q6.91 4.92 5.98 5.30L5.98 5.30L5.98 5.30Q5.05 5.69 4.40 6.38L4.40 6.38L4.40 6.38Q3.06 7.80 3.06 10.07L3.06 10.07L3.06 10.07Q3.06 11.57 3.86 12.47L3.86 12.47L3.86 12.47Q4.69 13.42 6.17 13.42L6.17 13.42L6.17 13.42Q7.38 13.42 9.35 12.64L9.35 12.64L9.35 12.64Q7.84 13.82 5.80 14.25L5.80 14.25L5.80 14.25Q5.15 14.38 4.47 14.38L4.47 14.38L4.47 14.38Q3.80 14.38 3.23 14.14L3.23 14.14L3.23 14.14Q2.66 13.90 2.28 13.47L2.28 13.47L2.28 13.47Q1.50 12.60 1.50 11.13L1.50 11.13L1.50 11.13Q1.50 9.21 2.80 7.49L2.80 7.49L2.80 7.49Q4.00 5.91 5.93 4.94L5.93 4.94L5.93 4.94Q7.84 3.98 9.71 3.98L9.71 3.98L9.71 3.98Q10.40 3.98 10.89 4.10ZM13.00 4.42L13.00 4.42L13.00 4.42Q13.00 3.92 12.59 3.92L12.59 3.92L12.59 3.92Q12.33 3.92 11.96 4.02L11.96 4.02L11.96 4.02Q12.92 3.38 14.88 2.30L14.88 2.30L13.42 8.57L13.42 8.57Q14.42 7.84 15.39 7.55L15.39 7.55L15.39 7.55Q15.75 7.44 16.03 7.44L16.03 7.44L16.03 7.44Q16.32 7.44 16.55 7.52L16.55 7.52L16.55 7.52Q16.78 7.59 16.95 7.72L16.95 7.72L16.95 7.72Q17.34 8.04 17.34 8.54L17.34 8.54L17.34 8.54Q17.34 8.67 17.30 8.83L17.30 8.83L16.50 12.30L16.50 12.30Q16.42 12.59 16.42 12.86L16.42 12.86L16.42 12.86Q16.42 13.13 16.55 13.23L16.55 13.23L16.55 13.23Q16.69 13.33 16.90 13.33L16.90 13.33L16.90 13.33Q17.10 13.33 17.28 13.27L17.28 13.27L17.28 13.27Q17.45 13.21 17.59 13.16L17.59 13.16L17.59 13.16Q16.52 14.19 15.50 14.19L15.50 14.19L15.50 14.19Q14.90 14.19 14.90 13.62L14.90 13.62L14.90 13.62Q14.90 13.39 14.96 13.16L14.96 13.16L14.96 13.16Q15.02 12.93 15.07 12.70L15.07 12.70L15.67 10.14L15.67 10.14Q15.80 9.63 15.80 9.30L15.80 9.30L15.80 9.30Q15.80 8.97 15.71 8.80L15.71 8.80L15.71 8.80Q15.63 8.63 15.48 8.54L15.48 8.54L15.48 8.54Q15.23 8.39 14.74 8.39L14.74 8.39L14.74 8.39Q14.25 8.39 13.96 8.60L13.96 8.60L13.96 8.60Q13.67 8.81 13.47 9.13L13.47 9.13L13.47 9.13Q13.17 9.63 12.96 10.53L12.96 10.53L12.48 12.59L12.48 12.59Q12.43 12.83 12.43 12.95L12.43 12.95L12.43 12.95Q12.43 13.28 12.71 13.28L12.71 13.28L12.71 13.28Q12.83 13.28 13.16 13.16L13.16 13.16L13.16 13.16Q12.74 13.83 12.02 14.10L12.02 14.10L12.02 14.10Q11.78 14.19 11.58 14.19L11.58 14.19L11.58 14.19Q11.38 14.19 11.27 14.14L11.27 14.14L11.27 14.14Q11.17 14.09 11.12 14L11.12 14L11.12 14Q11.01 13.83 11.01 13.58L11.01 13.58L11.01 13.58Q11.01 13.22 11.10 12.80L11.10 12.80L12.92 5.00L12.92 5.00Q13.00 4.67 13.00 4.42ZM20.90 7.39L20.90 7.39L20.90 7.39Q21.49 7.39 21.49 7.93L21.49 7.93L21.49 7.93Q21.49 8.09 21.42 8.38L21.42 8.38L21.42 8.38Q21.64 8.24 21.92 8.05L21.92 8.05L21.92 8.05Q22.20 7.86 22.49 7.69L22.49 7.69L22.49 7.69Q23.21 7.28 23.65 7.28L23.65 7.28L23.65 7.28Q23.92 7.28 24.17 7.43L24.17 7.43L24.17 7.43Q24.66 7.72 24.79 7.72L24.79 7.72L24.79 7.72Q24.92 7.72 25.02 7.69L25.02 7.69L25.02 7.69Q25.13 7.66 25.24 7.62L25.24 7.62L25.24 7.62Q25.44 7.53 25.62 7.44L25.62 7.44L25.62 7.44Q24.93 8.24 23.97 8.55L23.97 8.55L23.97 8.55Q23.65 8.65 23.41 8.65L23.41 8.65L23.41 8.65Q23.18 8.65 23.04 8.59L23.04 8.59L23.04 8.59Q22.90 8.52 22.76 8.44L22.76 8.44L22.76 8.44Q22.37 8.22 22.17 8.22L22.17 8.22L22.17 8.22Q21.97 8.22 21.84 8.32L21.84 8.32L21.84 8.32Q21.71 8.42 21.60 8.59L21.60 8.59L21.60 8.59Q21.49 8.76 21.39 8.96L21.39 8.96L21.39 8.96Q21.30 9.16 21.23 9.37L21.23 9.37L21.23 9.37Q21.08 9.78 21.03 10.02L21.03 10.02L20.43 12.64L20.43 12.64Q20.39 12.76 20.39 12.87L20.39 12.87L20.39 12.87Q20.39 13.30 20.77 13.30L20.77 13.30L20.77 13.30Q20.92 13.30 21.10 13.23L21.10 13.23L21.10 13.23Q20.88 13.38 20.70 13.56L20.70 13.56L20.70 13.56Q20.52 13.73 20.33 13.88L20.33 13.88L20.33 13.88Q19.89 14.22 19.38 14.22L19.38 14.22L19.38 14.22Q19.17 14.22 19.01 14.09L19.01 14.09L19.01 14.09Q18.85 13.97 18.85 13.84L18.85 13.84L18.85 13.84Q18.85 13.69 18.87 13.62L18.87 13.62L19.78 9.68L19.78 9.68Q19.83 9.47 19.89 9.26L19.89 9.26L19.89 9.26Q19.95 9.05 19.95 8.83L19.95 8.83L19.95 8.83Q19.95 8.33 19.30 8.33L19.30 8.33L19.30 8.33Q19.01 8.33 18.70 8.44L18.70 8.44L18.70 8.44Q18.92 8.37 19.26 8.11L19.26 8.11L19.26 8.11Q19.89 7.63 20.13 7.55L20.13 7.55L20.13 7.55Q20.58 7.39 20.90 7.39ZM27.21 3.41L28.76 2.48L28.76 2.48Q28.56 3.69 28.41 3.96L28.41 3.96L28.41 3.96Q28.37 4.05 27.94 4.29L27.94 4.29L27.94 4.29Q27.51 4.53 27.35 4.63L27.35 4.63L27.35 4.63Q26.99 4.83 26.87 4.89L26.87 4.89L26.87 4.89Q27.09 4.18 27.21 3.41L27.21 3.41ZM25.85 9.32L25.85 9.32L25.85 9.32Q25.85 8.83 25.41 8.83L25.41 8.83L25.41 8.83Q25.20 8.83 24.80 8.92L24.80 8.92L24.80 8.92Q26.86 7.60 27.72 7.21L27.72 7.21L26.60 12.03L26.60 12.03Q26.56 12.21 26.51 12.39L26.51 12.39L26.51 12.39Q26.47 12.58 26.47 12.76L26.47 12.76L26.47 12.76Q26.47 13.29 27.23 13.29L27.23 13.29L27.23 13.29Q27.43 13.29 27.68 13.24L27.68 13.24L27.68 13.24Q27.46 13.39 27.23 13.56L27.23 13.56L27.23 13.56Q27.00 13.73 26.75 13.88L26.75 13.88L26.75 13.88Q26.17 14.21 25.70 14.21L25.70 14.21L25.70 14.21Q25.14 14.21 25.01 13.91L25.01 13.91L25.01 13.91Q24.95 13.79 24.95 13.63L24.95 13.63L24.95 13.63Q24.95 13.38 25.01 13.13L25.01 13.13L25.76 9.88L25.76 9.88Q25.85 9.53 25.85 9.32ZM29.70 12.41L29.70 12.41L29.70 12.41Q29.50 12.59 29.50 12.77L29.50 12.77L29.50 12.77Q29.50 12.94 29.67 13.05L29.67 13.05L29.67 13.05Q29.85 13.15 30.09 13.21L30.09 13.21L30.09 13.21Q30.51 13.30 30.95 13.30L30.95 13.30L30.95 13.30Q31.39 13.30 31.63 13.04L31.63 13.04L31.63 13.04Q31.87 12.78 31.87 12.39L31.87 12.39L31.87 12.39Q31.87 11.99 31.67 11.77L31.67 11.77L31.67 11.77Q31.47 11.56 31.16 11.41L31.16 11.41L31.16 11.41Q30.86 11.27 30.50 11.15L30.50 11.15L30.50 11.15Q30.15 11.03 29.84 10.89L29.84 10.89L29.84 10.89Q29.13 10.55 29.13 10.01L29.13 10.01L29.13 10.01Q29.13 9.43 29.90 8.76L29.90 8.76L29.90 8.76Q30.56 8.17 31.53 7.74L31.53 7.74L31.53 7.74Q32.48 7.31 33.04 7.31L33.04 7.31L33.04 7.31Q33.54 7.31 33.76 7.42L33.76 7.42L33.76 7.42Q33.99 7.53 33.99 7.62L33.99 7.62L33.99 7.62Q33.99 7.80 33.56 8.01L33.56 8.01L33.56 8.01Q32.74 8.42 32.27 8.78L32.27 8.78L32.27 8.78Q32.44 8.67 32.44 8.56L32.44 8.56L32.44 8.56Q32.44 8.44 32.32 8.39L32.32 8.39L32.32 8.39Q32.20 8.33 32.05 8.30L32.05 8.30L32.05 8.30Q31.79 8.25 31.51 8.25L31.51 8.25L31.51 8.25Q30.66 8.25 30.66 9.07L30.66 9.07L30.66 9.07Q30.66 9.66 31.53 9.95L31.53 9.95L31.53 9.95Q31.78 10.04 32.04 10.12L32.04 10.12L32.04 10.12Q32.29 10.21 32.54 10.30L32.54 10.30L32.54 10.30Q32.79 10.40 32.98 10.53L32.98 10.53L32.98 10.53Q33.41 10.83 33.41 11.28L33.41 11.28L33.41 11.28Q33.41 11.72 33.20 12.10L33.20 12.10L33.20 12.10Q32.99 12.47 32.64 12.79L32.64 12.79L32.64 12.79Q32.29 13.12 31.85 13.38L31.85 13.38L31.85 13.38Q31.40 13.65 30.93 13.84L30.93 13.84L30.93 13.84Q29.96 14.25 29.25 14.25L29.25 14.25L29.25 14.25Q28.55 14.25 28.13 13.96L28.13 13.96L28.13 13.96Q27.97 13.85 27.97 13.70L27.97 13.70L27.97 13.70Q27.97 13.54 28.08 13.42L28.08 13.42L28.08 13.42Q28.18 13.29 28.33 13.18L28.33 13.18L28.33 13.18Q28.49 13.06 28.69 12.96L28.69 12.96L28.69 12.96Q28.89 12.86 29.08 12.76L29.08 12.76L29.08 12.76Q29.60 12.50 29.70 12.41Z"></path></g><defs data-v-fde0c5aa=""><!----></defs><g data-v-fde0c5aa="" id="55c21699-4515-489b-a997-6e9a2912f1c9" stroke="none" fill="#5AFF09" transform="matrix(1.1426929582711267,0,0,1.1426929582711267,29.184410975602677,98.57881878487392)"><path d="M38.182 57.753L20.18 47.91v-5.455l18.002-9.803v6.422l-12.557 6.039 12.557 6.266zM39.848 62.08l6.503-34.162h3.785L43.56 62.08zM51.8 57.78V51.4l12.572-6.219L51.8 39.028v-6.332L69.82 42.5v5.41z"></path><path d="M44.999 86.031L9.465 65.517V24.484L44.999 3.969l35.536 20.516v41.029L44.999 86.031zM13.07 63.434l31.929 18.434L76.93 63.434V26.566L44.999 8.131 13.07 26.565v36.869z"></path></g><defs data-v-fde0c5aa=""><!----></defs><g data-v-fde0c5aa="" id="4650453b-5707-43bf-9634-b47a4348f543" fill="#ffffff" transform="matrix(0.883410377312513,0,0,0.883410377312513,132.92141772908644,170.04526794316416)"><path d="M2.16 3.78L2.16 13.02L1.46 13.02L1.46 3.78L2.16 3.78ZM29.30 13.02L28.14 10.12L23.72 10.12L22.57 13.02L21.83 13.02L25.52 3.78L26.35 3.78L30.04 13.02L29.30 13.02ZM23.98 9.48L27.89 9.48L26.28 5.45L25.94 4.47L25.93 4.47L25.59 5.42L23.98 9.48ZM47.36 3.78L47.36 13.02L46.69 13.02L46.69 6.13L46.77 4.45L46.76 4.45L43.39 13.02L42.74 13.02L39.37 4.45L39.35 4.45L39.44 6.13L39.44 13.02L38.77 13.02L38.77 3.78L39.82 3.78L42.60 10.78L43.06 12.19L43.08 12.19L43.53 10.79L46.31 3.78L47.36 3.78ZM75.07 3.78L75.77 3.78L75.77 13.02L75.07 13.02L75.07 8.65L69.36 8.65L69.36 13.02L68.66 13.02L68.66 3.78L69.36 3.78L69.36 7.99L75.07 7.99L75.07 3.78ZM92.69 3.78L92.69 9.65L92.69 9.65Q92.69 11.35 91.77 12.26L91.77 12.26L91.77 12.26Q90.85 13.16 89.14 13.16L89.14 13.16L89.14 13.16Q87.43 13.16 86.50 12.26L86.50 12.26L86.50 12.26Q85.57 11.35 85.57 9.65L85.57 9.65L85.57 3.78L86.27 3.78L86.27 9.51L86.27 9.51Q86.27 10.99 87.00 11.75L87.00 11.75L87.00 11.75Q87.72 12.52 89.14 12.52L89.14 12.52L89.14 12.52Q90.54 12.52 91.27 11.75L91.27 11.75L91.27 11.75Q91.99 10.99 91.99 9.51L91.99 9.51L91.99 3.78L92.69 3.78ZM111.09 3.78L111.09 13.02L110.42 13.02L110.42 6.13L110.50 4.45L110.49 4.45L107.11 13.02L106.47 13.02L103.10 4.45L103.08 4.45L103.17 6.13L103.17 13.02L102.49 13.02L102.49 3.78L103.54 3.78L106.33 10.78L106.79 12.19L106.81 12.19L107.25 10.79L110.04 3.78L111.09 3.78ZM127.29 13.02L126.13 10.12L121.70 10.12L120.55 13.02L119.81 13.02L123.51 3.78L124.33 3.78L128.03 13.02L127.29 13.02ZM121.97 9.48L125.87 9.48L124.26 5.45L123.93 4.47L123.91 4.47L123.58 5.42L121.97 9.48ZM143.85 3.78L143.85 13.02L142.98 13.02L138.08 5.77L137.40 4.54L137.38 4.54L137.42 5.70L137.42 13.02L136.75 13.02L136.75 3.78L137.63 3.78L142.52 11.02L143.22 12.26L143.19 11.10L143.19 3.78L143.85 3.78Z"></path></g></svg>